<svg
  xmlns="http://www.w3.org/2000/svg"
  viewBox="0 0 64 64"
  role="img"
  aria-label="NeuroMap"
>
  <defs>
    <linearGradient id="g" x1="0" y1="0" x2="1" y2="1">
      <stop offset="0" stop-color="#5CB4B4" />
      <stop offset="1" stop-color="#44A4AC" />
    </linearGradient>
  </defs>
  <path
    fill="#1C3444"
    d="M32 2c11.6 0 21 9.4 21 21 0 13-16.4 35.3-19.1 38.8a2.4 2.4 0 0 1-3.8 0C27.4 58.3 11 36 11 23 11 11.4 20.4 2 32 2Z"
  />
  <path
    fill="url(#g)"
    d="M32 8c8.3 0 15 6.7 15 15 0 6.7-6.1 17.8-13.3 27.7-.8 1.1-2.5 1.1-3.3 0C23.1 40.8 17 29.7 17 23c0-8.3 6.7-15 15-15Z"
  />
  <circle cx="32" cy="23" r="6.2" fill="#ECF8F8" opacity="0.95" />
  <circle cx="32" cy="23" r="2.4" fill="#1C3444" opacity="0.85" />
</svg>

